<?xml version="1.0" encoding="utf-8"?>
<!-- Generator: Adobe Illustrator 21.1.0, SVG Export Plug-In . SVG Version: 6.00 Build 0)  -->
<svg version="1.1" id="_x30_" xmlns="http://www.w3.org/2000/svg" xmlns:xlink="http://www.w3.org/1999/xlink" x="0px" y="0px"
	 viewBox="0 0 128 84" style="enable-background:new 0 0 128 84;" xml:space="preserve">
<style type="text/css">
	.st0{fill:#FFFFFF;}
	.st1{fill:#FCC600;}
	.st2{fill:#231815;}
</style>
<g>
	<rect class="st0" width="128" height="84"/>
	<g>
		<g>
			<path class="st1" d="M54.034,55.694c-1.486-1.732-3.695-2.831-6.162-2.831c-2.466,0-4.675,1.098-6.162,2.831H54.034z"/>
			<ellipse class="st2" cx="47.872" cy="50.616" rx="1.253" ry="1.249"/>
			<path class="st2" d="M56.644,56.693c-0.595,0-1.157,0.135-1.66,0.375c-0.101-0.185-0.209-0.366-0.325-0.541H41.084
				c-0.47,0.717-0.829,1.512-1.052,2.362l-3.104-1.696l-2.339,0.333l5.939,6.828c1.291,2.753,4.094,4.661,7.345,4.661
				c3.342,0,6.212-2.016,7.451-4.895c0.412,0.15,0.857,0.232,1.322,0.232c2.123,0,3.843-1.715,3.843-3.829
				C60.487,58.407,58.767,56.693,56.644,56.693z M56.644,62.687c-0.292,0-0.571-0.058-0.825-0.162
				c0.103-0.513,0.157-1.043,0.157-1.586c0-0.811-0.12-1.593-0.343-2.332c0.302-0.159,0.646-0.249,1.012-0.249
				c1.2,0,2.172,0.969,2.172,2.165C58.817,61.718,57.844,62.687,56.644,62.687z"/>
		</g>
		<g>
			<ellipse class="st1" cx="108.661" cy="51.957" rx="1.849" ry="1.842"/>
			<ellipse class="st1" cx="115.441" cy="66.355" rx="1.644" ry="1.638"/>
			<ellipse class="st2" cx="107.771" cy="66.355" rx="1.644" ry="1.638"/>
			<polygon class="st2" points="114.345,53.8 116.263,49.978 118.18,51.207 			"/>
			<polygon class="st2" points="104.621,54.891 119.002,54.891 118.317,55.983 103.936,55.983 			"/>
			<path class="st2" d="M112.702,56.802c0,0-4.794,5.186-12.053,7.097c4.246-2.593,8.492-6.96,8.492-6.96L112.702,56.802z"/>
			<path class="st2" d="M113.661,57.348c0,0,2.602,2.729,8.766,5.186l-3.013,1.774c0,0-4.383-3.275-6.574-6.278L113.661,57.348z"/>
			<rect x="111.05" y="60.76" class="st2" width="1.301" height="7.643"/>
			
				<rect x="111.334" y="58.836" transform="matrix(-1.836970e-16 1 -1 -1.836970e-16 174.4135 -49.0725)" class="st2" width="0.819" height="7.67"/>
		</g>
		<g>
			<path class="st1" d="M23.236,13.694c-1.486-1.732-3.695-2.83-6.162-2.83c-2.467,0-4.675,1.098-6.162,2.83H23.236z"/>
			<ellipse class="st2" cx="17.074" cy="8.616" rx="1.253" ry="1.249"/>
			<path class="st2" d="M25.846,14.693c-0.595,0-1.157,0.135-1.66,0.375c-0.101-0.185-0.209-0.366-0.325-0.541H10.286
				c-0.47,0.717-0.829,1.512-1.052,2.362l-3.104-1.696L3.79,15.525l5.939,6.828c1.291,2.753,4.094,4.661,7.345,4.661
				c3.342,0,6.212-2.016,7.451-4.895c0.412,0.15,0.857,0.233,1.322,0.233c2.123,0,3.843-1.715,3.843-3.83
				C29.69,16.407,27.969,14.693,25.846,14.693z M25.846,20.687c-0.292,0-0.571-0.058-0.825-0.162
				c0.103-0.513,0.157-1.043,0.157-1.586c0-0.811-0.12-1.593-0.343-2.332c0.302-0.159,0.646-0.249,1.012-0.249
				c1.2,0,2.172,0.969,2.172,2.164C28.019,19.718,27.046,20.687,25.846,20.687z"/>
		</g>
		<g>
			<ellipse class="st1" cx="77.864" cy="9.957" rx="1.849" ry="1.842"/>
			<ellipse class="st1" cx="84.643" cy="24.355" rx="1.644" ry="1.638"/>
			<ellipse class="st2" cx="76.973" cy="24.355" rx="1.644" ry="1.638"/>
			<polygon class="st2" points="83.548,11.8 85.465,7.978 87.382,9.207 			"/>
			<polygon class="st2" points="73.823,12.891 88.204,12.891 87.519,13.983 73.138,13.983 			"/>
			<path class="st2" d="M81.904,14.802c0,0-4.794,5.186-12.053,7.097c4.246-2.593,8.492-6.96,8.492-6.96L81.904,14.802z"/>
			<path class="st2" d="M82.863,15.348c0,0,2.602,2.729,8.766,5.186l-3.013,1.774c0,0-4.383-3.275-6.574-6.278L82.863,15.348z"/>
			<rect x="80.252" y="18.76" class="st2" width="1.301" height="7.643"/>
			
				<rect x="80.536" y="16.836" transform="matrix(-1.836970e-16 1 -1 -1.836970e-16 101.6156 -60.2747)" class="st2" width="0.819" height="7.67"/>
		</g>
	</g>
</g>
</svg>
